<svg xmlns="http://www.w3.org/2000/svg" xmlns:xlink="http://www.w3.org/1999/xlink" version="1.1" id="Capa_1" x="0px" y="0px" viewBox="0 0 512 512" style="enable-background:new 0 0 512 512;" xml:space="preserve" width="512" height="512">
<g>
	<path id="Path_2520" d="M368.876,406.883H304.73V306.427c0-23.955-0.428-54.792-33.363-54.792c-33.41,0-38.521,26.1-38.521,53.048   v102.193h-64.146V200.298h61.581v28.231h0.862c12.557-21.469,35.904-34.292,60.759-33.37c65.015,0,77.003,42.764,77.003,98.398   L368.876,406.883z M96.32,172.06c-20.559,0.004-37.228-16.66-37.232-37.218c-0.004-20.559,16.66-37.228,37.218-37.232   c20.559-0.004,37.228,16.66,37.232,37.218C133.542,155.387,116.879,172.057,96.32,172.06L96.32,172.06 M128.393,406.884H64.18   V200.298h64.213V406.884z M400.856,38.041H31.946C14.511,37.844,0.213,51.81,0,69.245v370.44   c0.205,17.444,14.502,31.424,31.946,31.238h368.91c17.479,0.219,31.831-13.76,32.073-31.238V69.219   c-0.249-17.47-14.603-31.435-32.073-31.205"/>
</g>
</svg>
