<svg xmlns="http://www.w3.org/2000/svg" xmlns:xlink="http://www.w3.org/1999/xlink" version="1.1" id="Capa_1" x="0px" y="0px" viewBox="0 0 512 512" style="enable-background:new 0 0 512 512;" xml:space="preserve" width="512" height="512">
<g id="XMLID_184_">
	<path d="M501.3,131.96c-5.89-22.17-23.24-39.63-45.26-45.56C416.11,75.64,256,75.64,256,75.64s-160.11,0-200.04,10.76   c-22.02,5.93-39.37,23.39-45.26,45.56C0,172.15,0,256,0,256s0,83.85,10.7,124.04c5.89,22.17,23.24,39.63,45.26,45.56   C95.89,436.36,256,436.36,256,436.36s160.11,0,200.04-10.76c22.02-5.93,39.37-23.39,45.26-45.56C512,339.85,512,256,512,256   S512,172.15,501.3,131.96z M203.64,332.13V179.87L337.45,256L203.64,332.13z"/>
</g>
</svg>
