<svg xmlns="http://www.w3.org/2000/svg" xmlns:xlink="http://www.w3.org/1999/xlink" version="1.1" viewBox="0 0 24 20" style="enable-background:new 0 0 24 20;" xml:space="preserve" width="24" height="20">
	<path d="M21.543375,4.97866795 C21.5577656,5.19528919 21.5577656,5.41287191 21.5577656,5.6314161 C21.5577656,12.304706 16.6041562,20 7.54753125,20 L7.54753125,19.9960579 C4.87190625,19.9997596 2.25182812,19.2136063 0,17.7316305 C0.389015625,17.7793679 0.780375,17.8036933 1.17215625,17.8045106 C3.3898125,17.8068181 5.54371875,17.0438845 7.287375,15.6384905 C5.18071875,15.5979161 3.33210937,14.1886762 2.6870625,12.1314955 C3.42492187,12.2772557 4.18551562,12.2475941 4.9104375,12.0448662 C2.61290625,11.568886 0.96065625,9.49838886 0.960046875,7.09454691 C0.960046875,7.07286556 0.960046875,7.05123228 0.960046875,7.03056048 C1.64479687,7.42202669 2.41129687,7.63884022 3.19495312,7.66263683 C1.03101562,6.18066103 0.36346875,3.228776 1.67039062,0.921322335 C4.17070312,4.0761756 7.8594375,5.99398987 11.8185469,6.19758307 C11.4216562,4.4438452 11.9642344,2.60592985 13.2430312,1.37254447 C15.2259375,-0.53998166 18.3450937,-0.441766571 20.209875,1.59185785 C21.3125625,1.36884278 22.3700156,0.954301068 23.3365781,0.366068161 C22.9690312,1.5354671 22.1996719,2.52814619 21.1717969,3.15926107 C22.1479687,3.04095106 23.1012656,2.77313106 23.9999531,2.36474282 C23.3389219,3.37867059 22.5070312,4.26380825 21.543375,4.97866795 Z"></path>
</svg>
