<svg xmlns="http://www.w3.org/2000/svg" xmlns:xlink="http://www.w3.org/1999/xlink" version="1.1" id="Capa_1" x="0px" y="0px" viewBox="0 0 512 512" style="enable-background:new 0 0 512 512;" xml:space="preserve" width="512" height="512">
<path id="Logo_00000038394049246713568260000012923108920998390947_" d="M459.592,151.55c0.307,4.506,0.307,9.032,0.307,13.578  c0,138.813-105.677,298.885-298.885,298.885v-0.082C103.934,464.008,48.039,447.655,0,416.828  c8.299,0.993,16.648,1.499,25.006,1.516c47.31,0.048,93.26-15.822,130.458-45.056c-44.942-0.844-84.379-30.158-98.14-72.95  c15.741,3.032,31.967,2.415,47.432-1.802c-49.014-9.901-84.262-52.97-84.275-102.973c0-0.451,0-0.901,0-1.331  c14.608,8.143,30.96,12.653,47.678,13.148C21.995,176.553,7.754,115.15,35.635,67.152c53.34,65.625,132.033,105.518,216.494,109.753  c-8.467-36.48,3.108-74.711,30.389-100.367c42.302-39.783,108.844-37.74,148.626,4.562c23.524-4.639,46.083-13.262,66.703-25.498  c-7.841,24.325-24.254,44.974-46.182,58.102c20.825-2.461,41.162-8.032,60.334-16.527C497.897,118.268,480.15,136.68,459.592,151.55  z"/>
</svg>
