<svg xmlns="http://www.w3.org/2000/svg" xmlns:xlink="http://www.w3.org/1999/xlink" version="1.1"  x="0 0 24 24" viewBox="0 0 24 24" style="enable-background:new 0 0 24 24;" xml:space="preserve" width="24" height="24">
	<g>
		<path d="M24,12.0731406 C24,18.0984223 19.6058906,23.0936208 13.8700327,24 L13.8700327,15.5857717 L16.658719,15.5857717 L17.1893408,12.1051249 L13.8700327,12.1051249 L13.8700327,9.84646742 C13.8700327,8.89399314 14.3338008,7.96597746 15.8204769,7.96597746 L17.3295933,7.96597746 L17.3295933,5.00272415 C17.3295933,5.00272415 15.9597943,4.76754532 14.6503039,4.76754532 C11.9167835,4.76754532 10.1299673,6.4344929 10.1299673,9.45230769 L10.1299673,12.1051249 L7.0911641,12.1051249 L7.0911641,15.5857717 L10.1299673,15.5857717 L10.1299673,24 C4.39504441,23.0926801 0,18.097952 0,12.0731406 C0,5.40535032 5.37260402,0 12,0 C18.627396,0 24,5.40535032 24,12.0731406 Z"></path>
 	</g>
</svg>
