<svg xmlns="http://www.w3.org/2000/svg" xmlns:xlink="http://www.w3.org/1999/xlink" version="1.1" viewBox="0 0 24 24" style="enable-background:new 0 0 24 24;" xml:space="preserve" width="24" height="24">
	<g>
		<path d="M20.449136,20.449501 L16.8931164,20.449501 L16.8931164,14.8804663 C16.8931164,13.5524598 16.8693897,11.842932 15.0435938,11.842932 C13.1914656,11.842932 12.9081304,13.2898521 12.9081304,14.7837832 L12.9081304,20.4491129 L9.35211085,20.4491129 L9.35211085,8.9969344 L12.7659362,8.9969344 L12.7659362,10.5619919 L12.8137223,10.5619919 C13.5098365,9.37180312 14.8041088,8.6609274 16.181979,8.71204082 C19.7861728,8.71204082 20.4507437,11.0827723 20.4507437,14.166985 L20.449136,20.449501 Z M5.33962844,7.43148886 C4.19991269,7.43171057 3.27584431,6.50789922 3.27562252,5.36821403 C3.27540082,4.22847341 4.19919202,3.30438487 5.33885233,3.30416308 C6.47856808,3.30394136 7.40263646,4.22775272 7.40285825,5.36743791 C7.40307995,6.50717853 6.47934419,7.43132251 5.33962844,7.43148886 L5.33962844,7.43148886 M7.11763823,20.4495564 L3.55790441,20.4495564 L3.55790441,8.9969344 L7.11763823,8.9969344 L7.11763823,20.4495564 Z M22.2219902,0.00180361061 L1.77096937,0.00180361061 C0.804436755,-0.00911758703 0.0118079408,0.765123257 0,1.73167697 L0,22.2679635 C0.0113644501,23.2350162 0.803937828,24.0100332 1.77096937,23.9998625 L22.2219902,23.9998625 C23.190962,24.0118626 23.9865844,23.2369011 24,22.2679635 L24,1.73023559 C23.9861964,0.761741566 23.1904631,-0.0124438401 22.2219902,0.000151532299"></path>
	 </g>
</svg>
