<svg width="24" height="24" viewBox="0 0 24 24" fill="none" xmlns="http://www.w3.org/2000/svg">
<path d="M22.0744 3.49718C21.961 3.02583 21.4897 2.73778 21.0184 2.84252C20.8526 2.88617 20.6693 2.90362 20.4948 2.90362C19.4475 2.90362 18.5311 2.20533 18.2606 1.20153L18.2257 1.07932C18.1035 0.616704 17.6235 0.337385 17.1697 0.442129C16.7071 0.564331 16.4104 1.02695 16.5239 1.4983C16.8031 2.72032 16.07 3.93361 14.8569 4.2653L14.7609 4.29149C14.2984 4.40496 14.0104 4.88504 14.1239 5.34766C14.2199 5.74045 14.5777 6.01977 14.9704 6.01977C15.0402 6.01977 15.1013 6.01104 15.1711 5.99359C15.3457 5.95867 15.5202 5.93249 15.6948 5.93249C16.742 5.93249 17.6671 6.63951 17.9464 7.67823V7.70441L17.9639 7.73933C18.0511 8.14085 18.409 8.42017 18.8191 8.42017C18.8802 8.42017 18.95 8.41144 19.0111 8.40271C19.4824 8.29796 19.7791 7.82661 19.6657 7.32908C19.3951 6.11579 20.1282 4.9025 21.3326 4.57954L21.4286 4.55335C21.8999 4.43988 22.1879 3.9598 22.0744 3.49718ZM18.7493 4.2653C18.5486 4.51844 18.3828 4.78903 18.2431 5.07707C17.9988 4.87631 17.7282 4.71047 17.4402 4.57081C17.641 4.3264 17.8155 4.05581 17.9464 3.76777C18.1995 3.9598 18.4613 4.13437 18.7493 4.2653Z" fill="url(#paint0_linear_5874_11687)"/>
<path d="M21.8845 15.6669C21.771 15.2045 21.2997 14.9165 20.8285 15.0212C20.6539 15.0561 20.4794 15.0823 20.3048 15.0823C19.2576 15.0823 18.3412 14.3755 18.0707 13.3721L18.0357 13.2586C17.9136 12.7962 17.4423 12.5082 16.9797 12.6216C16.5172 12.7351 16.2205 13.2063 16.3339 13.6687C16.6132 14.8991 15.8801 16.1119 14.667 16.4435L14.571 16.4609C14.1085 16.5831 13.8205 17.0543 13.9339 17.5168C14.0474 17.9879 14.5186 18.2759 14.9812 18.1712C15.1557 18.1276 15.3303 18.1101 15.5048 18.1101C16.5521 18.1101 17.4772 18.8082 17.7565 19.8465V19.8814L17.7739 19.9163C17.8612 20.3177 18.219 20.5969 18.6292 20.5969C18.6903 20.5969 18.7514 20.5882 18.8212 20.5707C19.2837 20.466 19.5892 19.9949 19.4757 19.4975C19.2052 18.2846 19.9383 17.0805 21.1427 16.7489H21.1863L21.2387 16.7227C21.7099 16.6093 21.9979 16.1381 21.8845 15.6669ZM18.0532 17.2463C17.8088 17.0543 17.5383 16.8798 17.2503 16.7489C17.451 16.4959 17.6256 16.2254 17.7565 15.9374C18.0096 16.1381 18.2714 16.3039 18.5594 16.4435C18.3587 16.6878 18.1928 16.9583 18.0532 17.2463Z" fill="url(#paint1_linear_5874_11687)"/>
<path d="M9.48455 4.23717C9.37109 3.76582 8.89982 3.47777 8.43727 3.58251C8.26273 3.62616 8.08818 3.64361 7.91363 3.64361C6.86636 3.64361 5.94127 2.94532 5.67072 1.94152L5.64454 1.81932C5.52235 1.35669 5.05108 1.07738 4.57981 1.18212C4.11726 1.29559 3.82926 1.76694 3.93399 2.23829C4.22199 3.46031 3.48889 4.6736 2.26707 5.00529L2.1798 5.03148C1.70852 5.14495 1.42052 5.62503 1.53398 6.08765C1.62998 6.48917 1.99653 6.75103 2.39798 6.75103C2.45907 6.75103 2.52889 6.75103 2.58998 6.73358C2.7558 6.69866 2.93907 6.67248 3.11362 6.67248C4.1609 6.67248 5.07726 7.3795 5.34781 8.3833V8.42694L5.37399 8.47932C5.46999 8.88084 5.81908 9.16016 6.22927 9.16016C6.29908 9.16016 6.36018 9.15143 6.42127 9.1427C6.89254 9.03795 7.18927 8.5666 7.08454 8.06907C6.81399 6.85578 7.54709 5.64249 8.75146 5.31953L8.84746 5.29334C9.31 5.17987 9.598 4.69979 9.48455 4.23717ZM6.16817 5.00529C5.96745 5.25843 5.7929 5.52902 5.66199 5.81706C5.4089 5.6163 5.14708 5.45046 4.85908 5.31953C5.05981 5.06639 5.22563 4.7958 5.36526 4.50776C5.60963 4.70852 5.88017 4.87436 6.16817 5.00529Z" fill="url(#paint2_linear_5874_11687)"/>
<path d="M15.5813 9.72822L14.1708 8.317C13.6321 7.77799 12.682 7.76819 12.1335 8.317L0.418733 20.0478C-0.139578 20.6064 -0.139578 21.5178 0.418733 22.0862L1.8292 23.4877C2.09366 23.7621 2.45608 23.9091 2.83808 23.9091C3.22008 23.9091 3.58249 23.7621 3.85675 23.4877L15.5813 11.7569C16.1396 11.1982 16.1396 10.2868 15.5813 9.72822ZM2.83808 21.7236L2.19161 21.067L10.4585 12.7859L11.1148 13.4327L2.83808 21.7236ZM12.5057 12.0411L11.8592 11.3844L13.1521 10.0908L13.8084 10.7376L12.5057 12.0411Z" fill="url(#paint3_linear_5874_11687)"/>
<defs>
<linearGradient id="paint0_linear_5874_11687" x1="22" y1="1.4695e-07" x2="7.77976e-07" y2="24" gradientUnits="userSpaceOnUse">
<stop stop-color="#E14BFF"/>
<stop offset="1" stop-color="#00DDFF"/>
</linearGradient>
<linearGradient id="paint1_linear_5874_11687" x1="22" y1="1.4695e-07" x2="7.77976e-07" y2="24" gradientUnits="userSpaceOnUse">
<stop stop-color="#E14BFF"/>
<stop offset="1" stop-color="#00DDFF"/>
</linearGradient>
<linearGradient id="paint2_linear_5874_11687" x1="22" y1="1.4695e-07" x2="7.77976e-07" y2="24" gradientUnits="userSpaceOnUse">
<stop stop-color="#E14BFF"/>
<stop offset="1" stop-color="#00DDFF"/>
</linearGradient>
<linearGradient id="paint3_linear_5874_11687" x1="22" y1="1.4695e-07" x2="7.77976e-07" y2="24" gradientUnits="userSpaceOnUse">
<stop stop-color="#E14BFF"/>
<stop offset="1" stop-color="#00DDFF"/>
</linearGradient>
</defs>
</svg>
