<svg xmlns="http://www.w3.org/2000/svg" xmlns:xlink="http://www.w3.org/1999/xlink" version="1.1" viewBox="0 0 24 17" style="enable-background:new 0 0 24 17;" xml:space="preserve" width="24" height="17">
	<g>
		<path d="M23.4984375,2.65424706 C23.2223438,1.60942005 22.4090625,0.786565757 21.376875,0.507096917 C19.5051562,0 12,0 12,0 C12,0 4.49484375,0 2.623125,0.507096917 C1.5909375,0.786565757 0.77765625,1.60942005 0.5015625,2.65424706 C0,4.54832003 0,8.5 0,8.5 C0,8.5 0,12.45168 0.5015625,14.3457529 C0.77765625,15.39058 1.5909375,16.2134342 2.623125,16.4929031 C4.49484375,17 12,17 12,17 C12,17 19.5051562,17 21.376875,16.4929031 C22.4090625,16.2134342 23.2223438,15.39058 23.4984375,14.3457529 C24,12.45168 24,8.5 24,8.5 C24,8.5 24,4.54832003 23.4984375,2.65424706 Z M9.545625,12.0878521 L9.545625,4.91214793 L15.8179687,8.5 L9.545625,12.0878521 Z"></path>
	</g>
</svg>
